<svg width="140" height="40" viewBox="0 0 1195 420" fill="none" xmlns="http://www.w3.org/2000/svg">
    <path
        d="M1112.7 163.26C1067.65 163.26 1031 126.631 1031 81.6299C1031 36.629 1067.63 0 1112.7 0C1157.76 0 1194.43 36.629 1194.43 81.6299C1194.43 126.631 1157.76 163.26 1112.7 163.26ZM1112.7 9.87913C1073.08 9.87913 1040.87 42.0771 1040.87 81.6481C1040.87 121.219 1073.08 153.417 1112.7 153.417C1152.31 153.417 1184.54 121.219 1184.54 81.6481C1184.54 42.0771 1152.31 9.87913 1112.7 9.87913Z"
        fill="black" />
    <path d="M1077.42 108.09V63.0346H1062V55.1895H1102.63V63.0346H1087.25V108.09H1077.42Z" fill="black" />
    <path
        d="M1108.32 108.09V55.1895H1119.88L1135.88 93.4166L1152 55.1895H1163.42V108.09H1154.39V81.9575L1154.68 66.9936L1153.35 70.9343L1139.79 104.494H1131.41L1118.16 70.7709L1116.81 66.7938L1117.16 82.1028V108.09H1108.34H1108.32Z"
        fill="black" />
    <path
        d="M5.00437 163.073H38.3539V319.591C37.8644 347.848 57.5924 374.634 84.1311 383.029C129.419 398.547 178.554 357.533 170.464 309.613H204.011C210.031 363.365 167.509 415.939 113.831 419.492C78.9007 423.053 43.8764 406.847 23.5557 377.988C11.317 361.387 4.80683 340.734 5.00437 320.185V163.073ZM468.419 320.185C468.222 344.889 477.695 369.292 494.563 387.184C539.061 439.259 627.266 426.416 657.059 365.051C701.651 275.326 602.891 181.756 517.057 232.644V276.023C570.332 214.064 665.347 282.053 625.29 353.396C603.389 392.431 544.291 397.463 516.859 361.791C510.048 353.792 505.316 344.003 503.143 333.732C499.493 277.115 502.946 219.896 501.76 163.082H468.316V320.193H468.411L468.419 320.185ZM700.277 315.445C699.685 329.38 701.755 343.409 706.891 356.355C728.697 415.544 807.523 439.655 857.646 401.316C959.37 325.131 859.029 169.8 748.82 232.541V276.023C809.894 207.544 909.049 297.863 847.383 365.946C820.543 395.295 769.338 391.734 746.553 359.125C738.952 349.147 734.52 336.795 733.73 324.339V163.073H700.183V315.445H700.277ZM931.74 320.09C931.448 334.618 934.703 349.241 940.818 362.385C956.999 396.379 993.011 421.281 1030.9 419.501C1030.7 408.43 1031.29 397.368 1030.8 386.298C998.834 386.986 969.238 360.802 965.39 328.89C963.715 273.649 965.39 218.219 964.798 162.979H931.749V320.09H931.74ZM279.29 340.442C279.195 354.574 282.545 368.699 289.845 380.758C304.643 405.953 332.96 422.064 362.067 419.492C396.103 418.013 426.791 390.341 432.906 356.647C436.461 310.8 433.301 264.557 434.288 218.606H400.844C400.844 260.798 400.939 302.99 400.844 345.181C399.462 377.395 359.31 397.351 333.063 378.978C323.787 372.853 316.393 363.46 313.722 352.398C310.363 308.133 313.43 263.069 312.442 218.606H279.195V340.347L279.29 340.442ZM81.1681 165.938C84.2256 177.894 87.0856 190.048 90.0487 202.005C158.122 192.517 223.636 248.747 219.393 319.195C231.924 319.686 244.455 320.477 257.08 320.778C262.405 231.948 179.825 153.491 92.3161 164.355C88.5629 164.845 84.8182 164.845 81.1681 165.938ZM101.789 252.101C134.838 250.028 166.711 276.212 170.558 309.613H204.105C200.455 256.652 149.937 213.867 97.6496 218.804C98.9293 229.969 100.312 241.04 101.789 252.205V252.11V252.101ZM106.822 287.481C117.678 287.188 128.431 293.605 133.361 303.385C140.859 302.895 148.357 302 155.855 301.51C149.739 280.367 128.526 265.348 106.822 265.641V287.481Z"
        fill="white" />
    <mask id="mask0_4178_1569" style="mask-type:luminance" maskUnits="userSpaceOnUse" x="5" y="163" width="1026"
        height="257">
        <path d="M1031 163H5V420H1031V163Z" fill="white" />
    </mask>
    <g mask="url(#mask0_4178_1569)">
        <path
            d="M5.00046 163.001H38.3474V319.569C37.8579 347.835 57.5843 374.629 84.1211 383.027C129.405 398.55 178.537 357.523 170.447 309.588H203.991C210.012 363.357 167.493 415.948 113.818 419.502C78.891 423.064 43.8694 406.853 23.5504 377.985C11.3126 361.378 4.80294 340.719 5.00046 320.163V163.001ZM468.379 320.163C468.182 344.875 477.654 369.286 494.521 387.183C539.015 439.275 627.213 426.428 657.005 365.044C701.593 275.29 602.841 181.69 517.013 232.594V275.987C570.284 214.009 665.292 282.019 625.238 353.385C603.339 392.432 544.245 397.466 516.815 361.783C510.005 353.78 505.273 343.989 503.1 333.715C499.45 277.08 502.903 219.842 501.718 163.01H468.276V320.171H468.371L468.379 320.163ZM700.219 315.422C699.627 329.361 701.696 343.395 706.832 356.345C728.637 415.552 807.457 439.671 857.576 401.321C959.291 325.11 858.958 169.73 748.758 232.491V275.987C809.827 207.486 908.975 297.834 847.313 365.939C820.476 395.297 769.275 391.735 746.491 359.115C738.891 349.134 734.459 336.778 733.669 324.319V163.001H700.125V315.422H700.219ZM931.664 320.068C931.372 334.601 934.627 349.229 940.741 362.376C956.921 396.381 992.93 421.292 1030.81 419.51C1030.61 408.436 1031.21 397.371 1030.72 386.297C998.753 386.985 969.159 360.793 965.311 328.87C963.637 273.612 965.311 218.165 964.719 162.906H931.672V320.068H931.664ZM279.265 340.426C279.17 354.563 282.519 368.692 289.819 380.756C304.616 405.958 332.931 422.075 362.035 419.502C396.069 418.022 426.754 390.341 432.868 356.637C436.424 310.775 433.263 264.517 434.251 218.552H400.81C400.81 260.757 400.904 302.962 400.81 345.167C399.427 377.391 359.278 397.354 333.034 378.975C323.759 372.848 316.364 363.452 313.694 352.387C310.336 308.108 313.402 263.029 312.414 218.552H279.17V340.332L279.265 340.426ZM81.1582 165.866C84.2155 177.827 87.0753 189.985 90.0381 201.945C158.106 192.454 223.615 248.702 219.372 319.173C231.902 319.664 244.432 320.455 257.056 320.756C262.381 231.897 179.808 153.415 92.3054 164.283C88.5524 164.773 84.8081 164.773 81.1582 165.866ZM101.778 252.058C134.824 249.984 166.694 276.176 170.541 309.588H204.086C200.436 256.61 149.922 213.811 97.6385 218.75C98.9181 229.918 100.301 240.992 101.778 252.161V252.066V252.058ZM106.81 287.448C117.666 287.156 128.418 293.575 133.347 303.358C140.844 302.867 148.342 301.973 155.839 301.482C149.724 280.332 128.512 265.309 106.81 265.601V287.448Z"
            fill="url(#paint0_linear_4178_1569)" />
    </g>
    <defs>
        <linearGradient id="paint0_linear_4178_1569" x1="-2.40234" y1="291.441" x2="1023.51" y2="291.441"
            gradientUnits="userSpaceOnUse">
            <stop stop-color="#2C537B" />
            <stop offset="0.19" stop-color="#2D527E" />
            <stop offset="0.38" stop-color="#325189" />
            <stop offset="0.56" stop-color="#3B4E9D" />
            <stop offset="0.74" stop-color="#4C52A3" />
            <stop offset="0.91" stop-color="#5957A6" />
            <stop offset="1" stop-color="#5D5AA7" />
        </linearGradient>
    </defs>
</svg>
