<?xml version="1.0" encoding="utf-8"?>
<!-- Generator: Adobe Illustrator 27.3.1, SVG Export Plug-In . SVG Version: 6.00 Build 0)  -->
<svg version="1.1" id="Layer_1" xmlns="http://www.w3.org/2000/svg" xmlns:xlink="http://www.w3.org/1999/xlink" x="0px" y="0px"
	 viewBox="0 0 216 72" style="enable-background:new 0 0 216 72;" xml:space="preserve">
<style type="text/css">
	.st0{fill:#CA2427;}
	.st1{clip-path:url(#SVGID_00000088822005169291391370000003717446877989724579_);fill:#CA2427;}
	.st2{clip-path:url(#SVGID_00000045621150140169808070000003091650659086081956_);fill:#CA2427;}
	.st3{clip-path:url(#SVGID_00000132084243180666706640000006444659804899118993_);fill:#CA2427;}
	.st4{clip-path:url(#SVGID_00000007402147878396939230000012452784367155750313_);fill:#CA2427;}
	.st5{clip-path:url(#SVGID_00000134245029023829026880000004917477411058107060_);fill:#CA2427;}
	.st6{clip-path:url(#SVGID_00000127742142510156693460000016775340624279139735_);fill:#CA2427;}
	.st7{clip-path:url(#SVGID_00000018226522290468753340000000336089001616107185_);fill:#CA2427;}
	.st8{clip-path:url(#SVGID_00000036215568326364859300000002756179762335737233_);fill:#CA2427;}
	.st9{fill:#008598;}
</style>
<path class="st0" d="M44.49,33.3L44.49,33.3c-0.05,0.35-0.35,0.74-0.51,0.9c-1.22,1.01-2.76,1.57-4.35,1.57
	c-3.62,0-6.34-2.78-6.34-6.46c0-3.68,2.73-6.46,6.34-6.46c1.67,0,3.27,0.6,4.49,1.68c0.04,0.04,0.38,0.45,0.38,0.9L44.49,33.3z
	 M49.97,8.25l-0.04-0.01c-0.03-0.01-0.28-0.09-0.9-0.09l-3.23,0c0,0-0.06-0.01-0.16-0.01c-0.25,0-0.58,0.05-0.78,0.28
	c-0.28,0.31-0.38,0.71-0.38,1.47v8.36c0,0,0,0.01,0,0.01c-0.05,0-0.1-0.02-0.13-0.03l-0.59-0.28l0.02,0.03
	c-1.45-0.58-2.98-0.87-4.56-0.87c-6.74,0-12.22,5.4-12.22,12.04c0,6.37,5.01,11.61,11.43,12.01l0.16,0.02c0.02,0,0.4,0.06,1.05,0.06
	c1.96,0,5.8-0.47,9.52-3.66c0.24-0.25,1.45-1.54,1.44-2.2V10.46l0-0.55C50.62,9.86,50.71,8.65,49.97,8.25z"/>
<path class="st0" d="M74.36,25.46c-1.46-6.37-5.99-7.71-9.53-7.71c-2.18,0-4.09,0.51-4.82,0.74c-0.04,0.01-0.06,0.01-0.08,0.02
	c-0.01-0.01-0.02-0.06-0.03-0.09l0-8.5c0-0.05,0.09-1.26-0.64-1.66l-0.03-0.02c-0.03-0.01-0.28-0.09-0.9-0.09l-3.23,0
	c0,0-0.06-0.01-0.16-0.01c-0.25,0-0.58,0.05-0.79,0.28c-0.28,0.31-0.38,0.71-0.38,1.47V39.5c0,0.76,0.1,1.16,0.38,1.47
	c0.2,0.23,0.54,0.28,0.78,0.28c0.08,0,0.14-0.01,0.14-0.01h3.25c0.62,0,0.87-0.08,0.9-0.09l0.04-0.02c0.74-0.39,0.65-1.6,0.64-1.64
	l0-13.06c0.02-0.23,0.12-0.91,0.36-1.2c0.56-0.61,1.81-1.65,3.82-1.65c0.36,0,0.72,0.03,1.1,0.1c2.49,0.43,3.25,2.87,3.3,4.24V39.5
	c0,0.76,0.1,1.16,0.38,1.47c0.2,0.23,0.54,0.28,0.78,0.28c0.08,0,0.14-0.01,0.14-0.01h3.25c0.62,0,0.87-0.08,0.9-0.09l0.04-0.02
	c0.74-0.39,0.65-1.6,0.64-1.64l0-10.52c0-0.01,0.01-0.2-0.01-0.45l0.01-0.16C74.66,26.98,74.37,25.53,74.36,25.46"/>
<path class="st0" d="M94,25.01L94,25.01v7.91c0,0.46-0.34,0.86-0.36,0.88c-1.24,1.09-2.84,1.7-4.51,1.7c-3.62,0-6.34-2.78-6.34-6.46
	c0-3.68,2.73-6.46,6.34-6.46c1.59,0,3.14,0.56,4.34,1.55l0.05,0.05C93.66,24.29,94.01,24.61,94,25.01 M100.13,22.95
	c0-0.66-1.2-1.95-1.46-2.21c-3.7-3.17-7.54-3.65-9.5-3.65c-0.65,0-1.04,0.05-1.05,0.06l-0.11,0.02
	c-6.45,0.38-11.48,5.63-11.48,12.02c0,6.64,5.48,12.04,12.22,12.04c1.42,0,2.97-0.35,4.73-1.08c0.17-0.07,0.35-0.17,0.57-0.28
	l0,0.07l0,0c0.02,0.44,0.09,0.75,0.33,1.03c0.2,0.23,0.54,0.28,0.78,0.28c0.08,0,0.14-0.01,0.14-0.01h3.25
	c0.62,0,0.87-0.08,0.9-0.09l0.03-0.02c0.74-0.39,0.65-1.6,0.64-1.64V22.95z"/>
<path class="st0" d="M131.96,25.01L131.96,25.01v7.91c0,0.45-0.31,0.83-0.36,0.88c-1.24,1.09-2.84,1.7-4.51,1.7
	c-3.62,0-6.34-2.78-6.34-6.46c0-3.68,2.73-6.46,6.34-6.46c1.59,0,3.14,0.56,4.34,1.55l0.05,0.05
	C131.62,24.29,131.97,24.61,131.96,25.01 M138.09,22.95c0-0.66-1.2-1.95-1.46-2.21c-3.7-3.17-7.54-3.65-9.5-3.65
	c-0.65,0-1.04,0.05-1.05,0.06l-0.11,0.02c-6.45,0.38-11.48,5.63-11.48,12.02c0,6.64,5.48,12.04,12.22,12.04
	c1.42,0,2.97-0.35,4.73-1.08c0.16-0.07,0.35-0.17,0.57-0.28c0.02,0.48,0.08,0.81,0.33,1.1c0.2,0.23,0.54,0.28,0.78,0.28
	c0.08,0,0.14-0.01,0.14-0.01h3.25c0.62,0,0.87-0.08,0.9-0.09l0.03-0.02c0.74-0.39,0.65-1.6,0.64-1.64V22.95z"/>
<path class="st0" d="M114.84,23.03c0.1-0.24,0.1-0.47,0.1-0.5v-4.38c0-0.79-0.54-1.07-1-1.07l-0.04,0
	c-2.08,0.12-3.81,1.15-4.43,1.58l-0.02,0.01c-0.04-0.42-0.18-0.96-0.63-1.2l-0.04-0.02c-0.03-0.01-0.28-0.09-0.9-0.09l-3.23,0
	c0,0-0.06-0.01-0.16-0.01c-0.25,0-0.58,0.05-0.79,0.28c-0.28,0.31-0.38,0.71-0.38,1.47V39.5c0,0.76,0.1,1.16,0.38,1.47
	c0.2,0.23,0.54,0.28,0.78,0.28c0.08,0,0.14-0.01,0.14-0.01h3.25c0.62,0,0.87-0.08,0.9-0.09l0.04-0.02c0.74-0.4,0.65-1.6,0.64-1.64
	V25.97c0-0.3,0.17-0.54,0.17-0.54c0.46-0.58,1.73-1.93,3.54-1.93c0.22,0,0.45,0.02,0.67,0.06c0.07,0.01,0.14,0.02,0.21,0.02
	c0,0,0,0,0,0C114.41,23.58,114.69,23.39,114.84,23.03"/>
<path class="st0" d="M170.09,45.64c0-0.62-0.08-0.87-0.09-0.9l-0.02-0.04c-0.3-0.56-1.06-0.65-1.49-0.65c-0.09,0-0.15,0-0.15,0
	l-6.56,0c-0.56,0-0.63-0.88-0.63-0.89l0-14.93c0-0.11,0-0.22,0-0.34l0.02-0.02l-0.02-0.08c-0.03-1.22-0.3-2.36-0.31-2.42
	c-1.94-6.29-6.09-7.61-9.23-7.61c-2,0-3.78,0.53-4.68,0.86l-0.01,0.01c-0.97,0.33-2.01,0.83-3.09,1.5l0.12,0.19l-0.16-0.17
	c-1.61,0.95-2.69,1.76-3.13,2.33c-0.02,0.03-0.04,0.05-0.06,0.09c-0.08,0.11-0.13,0.22-0.14,0.28c-0.09,0.25-0.13,0.57-0.13,1.04
	v15.57c0,0.76,0.1,1.15,0.38,1.47c0.2,0.23,0.54,0.28,0.78,0.28c0.08,0,0.14,0,0.14-0.01h3.25c0.62,0,0.87-0.08,0.9-0.09l0.04-0.02
	c0.74-0.4,0.65-1.6,0.64-1.64V26.5c-0.02-0.91,0.41-1.4,0.43-1.42c0.56-0.6,1.79-1.62,3.75-1.62c0.35,0,0.71,0.03,1.07,0.1
	c2.11,0.36,3.22,1.83,3.32,4.35l0,16.48c0.13,1.94,0.89,5.26,4.49,5.73c0.22,0.05,0.48,0.07,0.82,0.07h8.02
	c0.76,0,1.16-0.1,1.47-0.38c0.33-0.29,0.28-0.88,0.27-0.92V45.64z"/>
<path class="st0" d="M169.45,18.33l-0.03-0.02c-0.03-0.01-0.28-0.09-0.9-0.09l-3.23,0c0,0-0.06-0.01-0.16-0.01
	c-0.25,0-0.58,0.05-0.78,0.28c-0.27,0.31-0.38,0.72-0.38,1.47V39.5c0,0.75,0.11,1.16,0.38,1.47c0.2,0.23,0.54,0.28,0.78,0.28
	c0.08,0,0.14-0.01,0.14-0.01h3.25c0.62,0,0.87-0.08,0.9-0.09l0.04-0.02c0.74-0.4,0.65-1.6,0.64-1.64l0-19.51
	C170.1,19.93,170.19,18.72,169.45,18.33"/>
<path class="st0" d="M167.03,15.96c1.77,0,3.2-1.44,3.2-3.2c0-1.77-1.44-3.2-3.2-3.2c-1.77,0-3.2,1.44-3.2,3.2
	C163.83,14.52,165.27,15.96,167.03,15.96"/>
<g>
	<defs>
		<path id="SVGID_1_" d="M33.11,29.34L33.11,29.34c0-3.69,2.74-6.69,6.57-6.69c1.8,0,3.43,0.67,4.66,1.75
			c0.07,0.08,0.43,0.52,0.43,1.05v7.91c-0.06,0.48-0.5,0.94-0.59,1.04c-1.21,1-2.78,1.62-4.5,1.62
			C35.85,36.02,33.11,33.03,33.11,29.34 M49.92,8.49c0,0-0.22-0.08-0.82-0.08c-0.6,0-3.25,0-3.25,0s-0.52-0.06-0.75,0.19
			c-0.22,0.26-0.32,0.6-0.32,1.32v8.36c0,0.39-0.45,0.18-0.45,0.18s0,0,0,0c-1.53-0.7-3.24-1.1-5.03-1.1c-6.62,0-12,5.29-12,11.82
			c0,6.33,5.06,11.5,11.41,11.8L38.69,41c0,0,5.34,0.78,10.38-3.54c0,0,1.38-1.44,1.38-2.04v-1.9v-8.68V10.5V9.93
			C50.44,9.93,50.53,8.82,49.92,8.49z"/>
	</defs>
	<use xlink:href="#SVGID_1_"  style="overflow:visible;fill:#CA2427;"/>
	<clipPath id="SVGID_00000011028426903276408570000010527691734776727970_">
		<use xlink:href="#SVGID_1_"  style="overflow:visible;"/>
	</clipPath>
	
		<rect x="27.29" y="8.36" style="clip-path:url(#SVGID_00000011028426903276408570000010527691734776727970_);fill:#CA2427;" width="23.24" height="33.43"/>
</g>
<g>
	<defs>
		<path id="SVGID_00000109010864481243574540000002270216855149940123_" d="M74.42,36.02V29c0,0,0.01-0.18-0.01-0.41
			c0-0.07,0-0.14,0.01-0.19c0.06-1.38-0.23-2.85-0.23-2.85c-2.26-9.86-11.97-7.45-14.06-6.81c-0.4,0.13-0.4-0.29-0.4-0.29v-4.64
			V9.93c0,0,0.09-1.11-0.52-1.44c0,0-0.22-0.08-0.82-0.08c-0.6,0-3.25,0-3.25,0s-0.53-0.06-0.75,0.2c-0.22,0.25-0.32,0.6-0.32,1.32
			v3.88v1.68v3.39v12.06v3.4v1.68v3.52c0,0.72,0.1,1.06,0.32,1.32c0.23,0.25,0.75,0.19,0.75,0.19s2.65,0,3.25,0
			c0.6,0,0.82-0.07,0.82-0.07c0.61-0.33,0.52-1.44,0.52-1.44v-3.52v-9.56c0,0,0.08-0.91,0.41-1.33c0.71-0.77,2.36-2.09,5.12-1.62
			c2.62,0.45,3.43,3.02,3.49,4.47v0.95v1.12v0.56v0.34v3.4v1.68v3.52c0,0.72,0.1,1.06,0.32,1.32c0.22,0.25,0.75,0.19,0.75,0.19
			s2.65,0,3.25,0c0.6,0,0.82-0.07,0.82-0.07c0.61-0.33,0.53-1.44,0.53-1.44V36.02z"/>
	</defs>
	<use xlink:href="#SVGID_00000109010864481243574540000002270216855149940123_"  style="overflow:visible;fill:#CA2427;"/>
	<clipPath id="SVGID_00000167392860045807007250000008027292959442394530_">
		<use xlink:href="#SVGID_00000109010864481243574540000002270216855149940123_"  style="overflow:visible;"/>
	</clipPath>
	
		<rect x="54.05" y="8.36" style="clip-path:url(#SVGID_00000167392860045807007250000008027292959442394530_);fill:#CA2427;" width="20.46" height="32.76"/>
</g>
<g>
	<defs>
		<path id="SVGID_00000008115542335739183230000011877583532246463381_" d="M89.18,35.76L89.18,35.76c-3.83,0-6.57-2.99-6.57-6.69
			c0-3.69,2.74-6.69,6.57-6.69c1.72,0,3.29,0.61,4.5,1.62c0.1,0.1,0.6,0.49,0.59,1.04v7.65v0.27c0,0.53-0.36,0.97-0.43,1.05
			C92.61,35.09,90.98,35.76,89.18,35.76 M99.95,39.54v-0.39v-9.44v-4.83v-1.9c0-0.6-1.38-2.04-1.38-2.04
			c-5.04-4.32-10.38-3.54-10.38-3.54l0.01,0.01c-6.35,0.3-11.41,5.47-11.41,11.8c0,6.53,5.37,11.82,12,11.82
			c1.63,0,3.22-0.48,4.64-1.06c0.2-0.09,0.42-0.2,0.64-0.32l0,0c0,0,0.23-0.01,0.24,0.22c0,0,0,0,0,0c0.02,0.5,0.09,0.76,0.28,0.97
			c0.22,0.25,0.75,0.19,0.75,0.19s2.65,0,3.25,0c0.6,0,0.82-0.08,0.82-0.08C100.04,40.65,99.95,39.54,99.95,39.54z"/>
	</defs>
	<use xlink:href="#SVGID_00000008115542335739183230000011877583532246463381_"  style="overflow:visible;fill:#CA2427;"/>
	<clipPath id="SVGID_00000048480526543597368900000013582411442868719498_">
		<use xlink:href="#SVGID_00000008115542335739183230000011877583532246463381_"  style="overflow:visible;"/>
	</clipPath>
	
		<rect x="76.8" y="16.63" style="clip-path:url(#SVGID_00000048480526543597368900000013582411442868719498_);fill:#CA2427;" width="23.24" height="24.48"/>
</g>
<g>
	<defs>
		<path id="SVGID_00000140693136391266924620000017919337081497705900_" d="M127.14,35.76L127.14,35.76c-3.83,0-6.57-2.99-6.57-6.69
			c0-3.69,2.74-6.69,6.57-6.69c1.72,0,3.29,0.61,4.5,1.62c0.1,0.1,0.6,0.49,0.59,1.04v7.65v0.27c0,0.53-0.36,0.97-0.43,1.05
			C130.57,35.09,128.94,35.76,127.14,35.76 M137.91,39.54v-0.39v-9.44v-4.83v-1.9c0-0.6-1.38-2.04-1.38-2.04
			c-5.04-4.32-10.38-3.54-10.38-3.54l0.01,0.01c-6.35,0.3-11.41,5.47-11.41,11.8c0,6.53,5.37,11.82,11.99,11.82
			c1.63,0,3.22-0.48,4.64-1.06c0.2-0.09,0.42-0.2,0.64-0.32l0,0c0,0,0.23-0.01,0.24,0.22c0,0,0,0,0,0c0.02,0.5,0.09,0.76,0.28,0.97
			c0.23,0.25,0.75,0.19,0.75,0.19s2.65,0,3.25,0c0.6,0,0.82-0.08,0.82-0.08C138,40.65,137.91,39.54,137.91,39.54z"/>
	</defs>
	<use xlink:href="#SVGID_00000140693136391266924620000017919337081497705900_"  style="overflow:visible;fill:#CA2427;"/>
	<clipPath id="SVGID_00000164476974603181050270000012752652058270011565_">
		<use xlink:href="#SVGID_00000140693136391266924620000017919337081497705900_"  style="overflow:visible;"/>
	</clipPath>
	
		<rect x="114.76" y="16.63" style="clip-path:url(#SVGID_00000164476974603181050270000012752652058270011565_);fill:#CA2427;" width="23.24" height="24.48"/>
</g>
<g>
	<defs>
		<path id="SVGID_00000034811714092869455010000004215032991846324890_" d="M113.95,17.36c-2.01,0.11-3.66,1.09-4.34,1.56
			c0,0,0,0,0,0c-0.23,0.15-0.33-0.13-0.33-0.13c-0.03-0.35-0.14-0.86-0.52-1.07c0,0-0.22-0.07-0.83-0.07c-0.6,0-3.25,0-3.25,0
			s-0.52-0.06-0.75,0.19c-0.23,0.25-0.32,0.6-0.32,1.32v3.52v1.68v3.39v2.35v3.39v1.68v4.37c0,0.72,0.1,1.06,0.32,1.32
			c0.22,0.25,0.75,0.19,0.75,0.19s2.65,0,3.25,0c0.6,0,0.83-0.07,0.83-0.07c0.61-0.33,0.52-1.44,0.52-1.44v-4.37v-9.16
			c0-0.36,0.19-0.64,0.21-0.68c0.55-0.69,2.14-2.36,4.43-1.95c0.84,0.15,0.84-0.81,0.84-0.81s0-3.48,0-4.38
			C114.76,17.3,113.95,17.36,113.95,17.36"/>
	</defs>
	<use xlink:href="#SVGID_00000034811714092869455010000004215032991846324890_"  style="overflow:visible;fill:#CA2427;"/>
	<clipPath id="SVGID_00000069370764254687488990000007577490898544148137_">
		<use xlink:href="#SVGID_00000034811714092869455010000004215032991846324890_"  style="overflow:visible;"/>
	</clipPath>
	
		<rect x="103.6" y="17.3" style="clip-path:url(#SVGID_00000069370764254687488990000007577490898544148137_);fill:#CA2427;" width="11.16" height="23.82"/>
</g>
<g>
	<defs>
		<path id="SVGID_00000062184503271498354930000011622590103708170377_" d="M169.92,48.93c0,0,0-2.65,0-3.25
			c0-0.6-0.07-0.82-0.07-0.82c-0.33-0.61-1.44-0.52-1.44-0.52h-3.52h-3.02c-0.01,0-0.02,0-0.03,0c-0.78,0-0.85-1.1-0.85-1.1h-0.01
			V28.27c0-0.13,0.01-0.26,0-0.4c0,0,0-0.01,0-0.01c-0.03-1.22-0.3-2.38-0.3-2.38c-2.97-9.62-11.1-7.52-13.63-6.6c0,0,0,0,0,0
			c-1.09,0.37-2.13,0.91-3.05,1.48c-0.01,0.01-0.03,0.02-0.04,0.02c-2.01,1.19-2.77,1.89-3.06,2.27c-0.02,0.02-0.03,0.04-0.05,0.07
			l0,0v0c0,0,0,0,0,0.01c-0.07,0.11-0.1,0.18-0.11,0.23c-0.08,0.22-0.12,0.52-0.12,0.96v3.52v1.68v1.78v1.61v1.78v1.68v3.52
			c0,0.72,0.1,1.06,0.32,1.32c0.22,0.25,0.75,0.19,0.75,0.19s2.65,0,3.25,0c0.6,0,0.82-0.07,0.82-0.07
			c0.62-0.33,0.53-1.44,0.53-1.44v-3.52v-8.54v-0.89c-0.03-1.02,0.49-1.58,0.49-1.58c0.75-0.81,2.37-2.05,5.03-1.59
			c3,0.52,3.45,3.11,3.5,4.58v0.92v1.12v0.56v0.35v3.39v10.12c0.12,1.86,0.85,5.07,4.31,5.53c0.2,0.04,0.45,0.06,0.77,0.06h1.36
			h1.12h0.56h0.35h1.12h2.28h1.24c0.72,0,1.06-0.1,1.32-0.32C169.98,49.46,169.92,48.93,169.92,48.93"/>
	</defs>
	<use xlink:href="#SVGID_00000062184503271498354930000011622590103708170377_"  style="overflow:visible;fill:#CA2427;"/>
	<clipPath id="SVGID_00000046297958196453068710000007541116774545213354_">
		<use xlink:href="#SVGID_00000062184503271498354930000011622590103708170377_"  style="overflow:visible;"/>
	</clipPath>
	
		<rect x="140.6" y="15.85" style="clip-path:url(#SVGID_00000046297958196453068710000007541116774545213354_);fill:#CA2427;" width="29.37" height="34.15"/>
</g>
<g>
	<defs>
		<path id="SVGID_00000149371779562917319530000011590713860637431966_" d="M169.92,36.02v-12.5v-3.52c0,0,0.09-1.11-0.53-1.44
			c0,0-0.22-0.08-0.82-0.08c-0.6,0-3.25,0-3.25,0s-0.52-0.06-0.75,0.2c-0.23,0.25-0.32,0.6-0.32,1.32v3.52v1.68v3.4v2.35v3.4v1.68
			v3.52c0,0.72,0.1,1.06,0.32,1.32c0.22,0.25,0.75,0.19,0.75,0.19s2.65,0,3.25,0c0.6,0,0.82-0.07,0.82-0.07
			c0.62-0.33,0.53-1.44,0.53-1.44V36.02z"/>
	</defs>
	<use xlink:href="#SVGID_00000149371779562917319530000011590713860637431966_"  style="overflow:visible;fill:#CA2427;"/>
	<clipPath id="SVGID_00000037683746575589549850000004279376214607794596_">
		<use xlink:href="#SVGID_00000149371779562917319530000011590713860637431966_"  style="overflow:visible;"/>
	</clipPath>
	
		<rect x="164.24" y="18.43" style="clip-path:url(#SVGID_00000037683746575589549850000004279376214607794596_);fill:#CA2427;" width="5.77" height="22.68"/>
</g>
<g>
	<defs>
		<path id="SVGID_00000070116094949625647050000012542522787546714242_" d="M170.06,12.79c0,1.65-1.33,2.98-2.98,2.98
			c-1.65,0-2.98-1.33-2.98-2.98c0-1.65,1.33-2.98,2.98-2.98C168.73,9.82,170.06,11.15,170.06,12.79"/>
	</defs>
	<use xlink:href="#SVGID_00000070116094949625647050000012542522787546714242_"  style="overflow:visible;fill:#CA2427;"/>
	<clipPath id="SVGID_00000145042924516180072970000015598975937592580493_">
		<use xlink:href="#SVGID_00000070116094949625647050000012542522787546714242_"  style="overflow:visible;"/>
	</clipPath>
	
		<rect x="164.1" y="9.82" style="clip-path:url(#SVGID_00000145042924516180072970000015598975937592580493_);fill:#CA2427;" width="5.96" height="5.96"/>
</g>
<path class="st0" d="M177.89,14.3L177.89,14.3h2.52c0.54,0,0.96-0.06,1.26-0.17c0.3-0.11,0.53-0.29,0.69-0.53
	c0.16-0.24,0.24-0.51,0.24-0.8c0-0.42-0.15-0.76-0.46-1.04c-0.3-0.27-0.79-0.41-1.44-0.41h-2.81V14.3z M176.71,19.26v-8.87h3.93
	c0.79,0,1.39,0.08,1.8,0.24c0.41,0.16,0.74,0.44,0.99,0.85c0.25,0.4,0.37,0.85,0.37,1.34c0,0.63-0.2,1.16-0.61,1.59
	c-0.41,0.43-1.04,0.71-1.89,0.82c0.31,0.15,0.55,0.3,0.71,0.44c0.34,0.31,0.67,0.71,0.97,1.18l1.54,2.41h-1.48l-1.17-1.85
	c-0.34-0.53-0.63-0.94-0.85-1.22c-0.22-0.28-0.42-0.48-0.6-0.59c-0.17-0.11-0.35-0.19-0.54-0.24c-0.13-0.03-0.35-0.04-0.65-0.04
	h-1.36v3.94H176.71z"/>
<path class="st0" d="M180.62,7.54L180.62,7.54c-4.02,0-7.28,3.27-7.28,7.28c0,4.02,3.27,7.28,7.28,7.28c4.02,0,7.28-3.27,7.28-7.28
	C187.9,10.81,184.64,7.54,180.62,7.54 M180.62,23.19c-4.61,0-8.36-3.75-8.36-8.36c0-4.61,3.75-8.36,8.36-8.36
	c4.61,0,8.36,3.75,8.36,8.36C188.98,19.44,185.23,23.19,180.62,23.19z"/>
<path class="st9" d="M161.29,62.03l2.96-0.19c0.06,0.48,0.19,0.85,0.39,1.09c0.32,0.41,0.78,0.61,1.38,0.61
	c0.44,0,0.79-0.1,1.03-0.31c0.24-0.21,0.36-0.45,0.36-0.73c0-0.26-0.11-0.5-0.34-0.7c-0.23-0.21-0.76-0.4-1.59-0.58
	c-1.37-0.31-2.34-0.71-2.92-1.22c-0.59-0.51-0.88-1.16-0.88-1.94c0-0.52,0.15-1.01,0.45-1.47c0.3-0.46,0.75-0.82,1.36-1.09
	c0.6-0.26,1.43-0.39,2.48-0.39c1.29,0,2.27,0.24,2.95,0.72c0.68,0.48,1.08,1.24,1.21,2.29l-2.93,0.17c-0.08-0.46-0.24-0.79-0.49-1
	c-0.25-0.21-0.6-0.31-1.04-0.31c-0.36,0-0.64,0.08-0.82,0.23c-0.18,0.15-0.27,0.34-0.27,0.56c0,0.16,0.08,0.3,0.22,0.43
	c0.14,0.13,0.49,0.26,1.04,0.37c1.36,0.29,2.34,0.59,2.92,0.89c0.59,0.3,1.02,0.67,1.29,1.12c0.27,0.44,0.4,0.94,0.4,1.49
	c0,0.65-0.18,1.24-0.54,1.79c-0.36,0.54-0.86,0.96-1.5,1.24c-0.64,0.28-1.45,0.42-2.43,0.42c-1.71,0-2.9-0.33-3.56-0.99
	C161.75,63.89,161.38,63.05,161.29,62.03 M154.04,59.38h1.32c0.14,0,0.42-0.05,0.83-0.14c0.21-0.04,0.38-0.15,0.51-0.32
	c0.13-0.17,0.2-0.37,0.2-0.59c0-0.33-0.1-0.58-0.31-0.75c-0.21-0.18-0.59-0.26-1.17-0.26h-1.37V59.38z M150.91,65.37V55.28h5.2
	c0.96,0,1.7,0.08,2.21,0.25c0.51,0.16,0.92,0.47,1.23,0.92c0.31,0.45,0.47,1,0.47,1.64c0,0.56-0.12,1.04-0.36,1.45
	c-0.24,0.41-0.57,0.74-0.99,0.99c-0.27,0.16-0.63,0.29-1.09,0.4c0.37,0.12,0.64,0.25,0.81,0.37c0.11,0.08,0.28,0.26,0.5,0.53
	c0.22,0.27,0.36,0.48,0.43,0.63l1.51,2.91h-3.52l-1.67-3.08c-0.21-0.4-0.4-0.66-0.56-0.78c-0.23-0.16-0.48-0.23-0.77-0.23h-0.27
	v4.09H150.91z M141.85,60.34c0,1.02,0.19,1.75,0.57,2.19c0.38,0.44,0.9,0.67,1.55,0.67c0.67,0,1.19-0.22,1.56-0.65
	c0.37-0.44,0.55-1.22,0.55-2.35c0-0.95-0.19-1.64-0.58-2.08c-0.39-0.44-0.9-0.66-1.56-0.66c-0.63,0-1.14,0.22-1.52,0.67
	C142.04,58.57,141.85,59.31,141.85,60.34z M138.73,60.33c0-1.65,0.46-2.93,1.38-3.84c0.92-0.92,2.2-1.38,3.84-1.38
	c1.68,0,2.97,0.45,3.88,1.35c0.91,0.9,1.36,2.17,1.36,3.79c0,1.18-0.2,2.14-0.59,2.9c-0.4,0.75-0.97,1.34-1.72,1.76
	c-0.75,0.42-1.69,0.63-2.81,0.63c-1.14,0-2.08-0.18-2.83-0.54c-0.74-0.36-1.35-0.94-1.81-1.72
	C138.97,62.49,138.73,61.51,138.73,60.33z M128.73,55.28h9.48v2.49h-3.18v7.6h-3.11v-7.6h-3.18V55.28z M120.78,60.34
	c0,1.02,0.19,1.75,0.57,2.19c0.38,0.44,0.9,0.67,1.55,0.67c0.67,0,1.19-0.22,1.56-0.65c0.37-0.44,0.55-1.22,0.55-2.35
	c0-0.95-0.19-1.64-0.58-2.08c-0.39-0.44-0.9-0.66-1.56-0.66c-0.63,0-1.14,0.22-1.52,0.67C120.97,58.57,120.78,59.31,120.78,60.34z
	 M117.67,60.33c0-1.65,0.46-2.93,1.38-3.84c0.92-0.92,2.2-1.38,3.84-1.38c1.68,0,2.97,0.45,3.88,1.35c0.91,0.9,1.36,2.17,1.36,3.79
	c0,1.18-0.2,2.14-0.59,2.9c-0.4,0.75-0.97,1.34-1.72,1.76c-0.75,0.42-1.69,0.63-2.81,0.63c-1.14,0-2.08-0.18-2.83-0.54
	c-0.74-0.36-1.35-0.94-1.81-1.72C117.9,62.49,117.67,61.51,117.67,60.33z M104.73,55.28h4.11l1.57,6.14l1.57-6.14h4.09v10.09h-2.55
	v-7.69l-1.97,7.69h-2.31l-1.96-7.69v7.69h-2.55V55.28z M91.28,61.15c-0.39,0.27-0.64,0.5-0.77,0.7c-0.13,0.19-0.19,0.4-0.19,0.62
	c0,0.34,0.14,0.63,0.43,0.9c0.29,0.26,0.66,0.39,1.13,0.39c0.5,0,1.06-0.19,1.68-0.59C92.97,62.7,92.21,62.03,91.28,61.15z
	 M92.28,58.69c0.36-0.2,0.64-0.41,0.84-0.65c0.2-0.23,0.3-0.45,0.3-0.66c0-0.22-0.08-0.4-0.25-0.55c-0.16-0.15-0.39-0.22-0.68-0.22
	c-0.28,0-0.51,0.08-0.69,0.25c-0.18,0.16-0.27,0.36-0.27,0.58C91.52,57.74,91.77,58.15,92.28,58.69z M95.49,60.46l2.18,0.49
	c-0.12,0.41-0.23,0.73-0.33,0.97c-0.11,0.24-0.26,0.53-0.45,0.86l1.05,0.72c0.13,0.08,0.29,0.18,0.5,0.3l-1.51,1.73
	c-0.27-0.15-0.56-0.31-0.85-0.51c-0.3-0.19-0.56-0.36-0.79-0.49c-0.49,0.32-0.97,0.55-1.46,0.7c-0.67,0.2-1.44,0.3-2.29,0.3
	c-1.34,0-2.34-0.28-3-0.84c-0.66-0.56-0.98-1.24-0.98-2.04c0-0.58,0.19-1.12,0.58-1.63c0.38-0.51,1.01-0.94,1.89-1.3
	c-0.37-0.45-0.62-0.83-0.75-1.16c-0.14-0.33-0.21-0.66-0.21-1c0-0.72,0.27-1.31,0.82-1.77c0.55-0.46,1.37-0.7,2.48-0.7
	c1.13,0,1.96,0.22,2.49,0.66c0.53,0.44,0.8,0.97,0.8,1.58c0,0.35-0.08,0.67-0.24,0.99c-0.16,0.32-0.36,0.57-0.59,0.77
	c-0.23,0.2-0.64,0.49-1.24,0.88c0.49,0.49,1,0.95,1.54,1.37C95.27,61.08,95.39,60.78,95.49,60.46z M72.12,62.03l2.96-0.19
	c0.06,0.48,0.19,0.85,0.39,1.09c0.32,0.41,0.78,0.61,1.38,0.61c0.44,0,0.79-0.1,1.03-0.31c0.24-0.21,0.36-0.45,0.36-0.73
	c0-0.26-0.11-0.5-0.34-0.7c-0.23-0.21-0.76-0.4-1.59-0.58c-1.37-0.31-2.34-0.71-2.92-1.22c-0.59-0.51-0.88-1.16-0.88-1.94
	c0-0.52,0.15-1.01,0.45-1.47c0.3-0.46,0.75-0.82,1.36-1.09c0.6-0.26,1.43-0.39,2.48-0.39c1.29,0,2.27,0.24,2.95,0.72
	c0.68,0.48,1.08,1.24,1.21,2.29l-2.93,0.17c-0.08-0.46-0.24-0.79-0.49-1c-0.25-0.21-0.6-0.31-1.04-0.31c-0.36,0-0.64,0.08-0.82,0.23
	c-0.18,0.15-0.27,0.34-0.27,0.56c0,0.16,0.08,0.3,0.22,0.43c0.14,0.13,0.49,0.26,1.04,0.37c1.36,0.29,2.34,0.59,2.92,0.89
	c0.59,0.3,1.02,0.67,1.29,1.12c0.27,0.44,0.4,0.94,0.4,1.49c0,0.65-0.18,1.24-0.54,1.79c-0.36,0.54-0.86,0.96-1.5,1.24
	c-0.64,0.28-1.45,0.42-2.43,0.42c-1.71,0-2.9-0.33-3.56-0.99C72.58,63.89,72.21,63.05,72.12,62.03z M65.59,59.59h0.77
	c0.61,0,1.03-0.11,1.28-0.32c0.24-0.21,0.37-0.48,0.37-0.8c0-0.32-0.11-0.58-0.32-0.81c-0.21-0.22-0.61-0.33-1.2-0.33h-0.89V59.59z
	 M62.47,55.28h5.19c1.13,0,1.98,0.27,2.54,0.81c0.56,0.54,0.84,1.3,0.84,2.3c0,1.02-0.31,1.82-0.92,2.39
	c-0.61,0.58-1.55,0.86-2.81,0.86h-1.71v3.73h-3.13V55.28z M49.15,55.28h4.11l1.57,6.14l1.57-6.14h4.09v10.09h-2.55v-7.69l-1.97,7.69
	h-2.31l-1.96-7.69v7.69h-2.55V55.28z M44.01,55.28h3.11v6.01c0,0.59-0.09,1.16-0.28,1.69c-0.19,0.53-0.48,0.99-0.87,1.39
	c-0.4,0.4-0.81,0.67-1.25,0.84c-0.61,0.22-1.33,0.34-2.18,0.34c-0.49,0-1.03-0.04-1.61-0.1c-0.58-0.07-1.07-0.2-1.46-0.41
	c-0.39-0.2-0.75-0.49-1.07-0.87c-0.32-0.38-0.55-0.76-0.66-1.16c-0.19-0.64-0.29-1.21-0.29-1.71v-6.01h3.11v6.15
	c0,0.55,0.15,0.98,0.46,1.29c0.31,0.31,0.73,0.47,1.27,0.47c0.53,0,0.95-0.15,1.26-0.46c0.3-0.3,0.46-0.74,0.46-1.29V55.28z
	 M30.38,59.59h0.77c0.61,0,1.03-0.11,1.28-0.32c0.24-0.21,0.37-0.48,0.37-0.8c0-0.32-0.11-0.58-0.32-0.81
	c-0.21-0.22-0.61-0.33-1.2-0.33h-0.89V59.59z M27.25,55.28h5.19c1.13,0,1.98,0.27,2.54,0.81c0.56,0.54,0.84,1.3,0.84,2.3
	c0,1.02-0.31,1.82-0.92,2.39c-0.61,0.58-1.55,0.86-2.81,0.86h-1.71v3.73h-3.13V55.28z"/>
</svg>
