<svg width="340" height="49" viewBox="0 0 340 49" fill="none" xmlns="http://www.w3.org/2000/svg">
<path d="M4.15141 47C3.83607 47 3.57807 46.8997 3.37741 46.699C3.17674 46.4983 3.07641 46.2403 3.07641 45.925V17.975C3.07641 17.6597 3.17674 17.4017 3.37741 17.201C3.57807 17.0003 3.83607 16.9 4.15141 16.9H9.56941C9.88474 16.9 10.1427 17.0003 10.3434 17.201C10.5441 17.4017 10.6444 17.6597 10.6444 17.975V27.521L18.5994 17.717C18.7141 17.545 18.9004 17.373 19.1584 17.201C19.4451 17.0003 19.8177 16.9 20.2764 16.9H26.4684C26.7264 16.9 26.9414 17.0003 27.1134 17.201C27.2854 17.373 27.3714 17.5737 27.3714 17.803C27.3714 18.0037 27.3141 18.1757 27.1994 18.319L16.9224 31.305L28.0164 45.581C28.1311 45.6957 28.1884 45.8677 28.1884 46.097C28.1884 46.3263 28.0881 46.5413 27.8874 46.742C27.7154 46.914 27.5147 47 27.2854 47H20.8784C20.3624 47 19.9611 46.8853 19.6744 46.656C19.4164 46.4267 19.2444 46.2547 19.1584 46.14L10.6444 35.519V45.925C10.6444 46.2403 10.5441 46.4983 10.3434 46.699C10.1427 46.8997 9.88474 47 9.56941 47H4.15141ZM32.6221 47C32.3068 47 32.0488 46.8997 31.8481 46.699C31.6474 46.4983 31.5471 46.2403 31.5471 45.925V17.975C31.5471 17.6597 31.6474 17.4017 31.8481 17.201C32.0488 17.0003 32.3068 16.9 32.6221 16.9H38.3841C38.6994 16.9 38.9574 17.0003 39.1581 17.201C39.3588 17.4017 39.4591 17.6597 39.4591 17.975V45.925C39.4591 46.2403 39.3588 46.4983 39.1581 46.699C38.9574 46.8997 38.6994 47 38.3841 47H32.6221ZM46.5635 47C46.2482 47 45.9902 46.8997 45.7895 46.699C45.5888 46.4983 45.4885 46.2403 45.4885 45.925V17.975C45.4885 17.6597 45.5888 17.4017 45.7895 17.201C45.9902 17.0003 46.2482 16.9 46.5635 16.9H58.2595C61.9575 16.9 64.8672 17.76 66.9885 19.48C69.1385 21.1713 70.2135 23.5793 70.2135 26.704C70.2135 28.7393 69.7119 30.4593 68.7085 31.864C67.7339 33.2687 66.4439 34.3293 64.8385 35.046L70.7725 45.624C70.8585 45.796 70.9015 45.9537 70.9015 46.097C70.9015 46.3263 70.8012 46.5413 70.6005 46.742C70.4285 46.914 70.2135 47 69.9555 47H64.2795C63.7349 47 63.3335 46.871 63.0755 46.613C62.8175 46.3263 62.6312 46.0683 62.5165 45.839L57.6145 36.379H53.1855V45.925C53.1855 46.2403 53.0852 46.4983 52.8845 46.699C52.6838 46.8997 52.4258 47 52.1105 47H46.5635ZM53.1855 30.316H58.1735C59.5208 30.316 60.5242 29.9863 61.1835 29.327C61.8715 28.6677 62.2155 27.7647 62.2155 26.618C62.2155 25.5 61.8858 24.597 61.2265 23.909C60.5959 23.221 59.5782 22.877 58.1735 22.877H53.1855V30.316ZM73.499 47C73.2697 47 73.0547 46.914 72.854 46.742C72.682 46.5413 72.596 46.3263 72.596 46.097C72.596 45.9537 72.6103 45.8247 72.639 45.71L82.744 18.104C82.83 17.7887 83.002 17.5163 83.26 17.287C83.5467 17.029 83.9337 16.9 84.421 16.9H90.785C91.2723 16.9 91.645 17.029 91.903 17.287C92.1897 17.5163 92.376 17.7887 92.462 18.104L102.524 45.71C102.581 45.8247 102.61 45.9537 102.61 46.097C102.61 46.3263 102.51 46.5413 102.309 46.742C102.137 46.914 101.922 47 101.664 47H96.375C95.945 47 95.6153 46.8997 95.386 46.699C95.1853 46.4697 95.0563 46.269 94.999 46.097L93.322 41.711H81.841L80.207 46.097C80.1497 46.269 80.0207 46.4697 79.82 46.699C79.6193 46.8997 79.2753 47 78.788 47H73.499ZM83.604 35.519H91.602L87.56 24.167L83.604 35.519ZM107.074 47C106.759 47 106.501 46.8997 106.3 46.699C106.1 46.4983 105.999 46.2403 105.999 45.925V17.975C105.999 17.6597 106.1 17.4017 106.3 17.201C106.501 17.0003 106.759 16.9 107.074 16.9H111.632C112.12 16.9 112.464 17.0147 112.664 17.244C112.894 17.4447 113.037 17.6023 113.094 17.717L123.586 34.272V17.975C123.586 17.6597 123.687 17.4017 123.887 17.201C124.088 17.0003 124.346 16.9 124.661 16.9H129.821C130.137 16.9 130.395 17.0003 130.595 17.201C130.796 17.4017 130.896 17.6597 130.896 17.975V45.925C130.896 46.2117 130.796 46.4697 130.595 46.699C130.395 46.8997 130.137 47 129.821 47H125.22C124.762 47 124.418 46.8853 124.188 46.656C123.988 46.4267 123.859 46.269 123.801 46.183L113.309 30.273V45.925C113.309 46.2403 113.209 46.4983 113.008 46.699C112.808 46.8997 112.55 47 112.234 47H107.074ZM147.135 47C146.819 47 146.561 46.8997 146.361 46.699C146.16 46.4983 146.06 46.2403 146.06 45.925V17.975C146.06 17.6597 146.16 17.4017 146.361 17.201C146.561 17.0003 146.819 16.9 147.135 16.9H152.553C152.868 16.9 153.126 17.0003 153.327 17.201C153.527 17.4017 153.628 17.6597 153.628 17.975V27.521L161.583 17.717C161.697 17.545 161.884 17.373 162.142 17.201C162.428 17.0003 162.801 16.9 163.26 16.9H169.452C169.71 16.9 169.925 17.0003 170.097 17.201C170.269 17.373 170.355 17.5737 170.355 17.803C170.355 18.0037 170.297 18.1757 170.183 18.319L159.906 31.305L171 45.581C171.114 45.6957 171.172 45.8677 171.172 46.097C171.172 46.3263 171.071 46.5413 170.871 46.742C170.699 46.914 170.498 47 170.269 47H163.862C163.346 47 162.944 46.8853 162.658 46.656C162.4 46.4267 162.228 46.2547 162.142 46.14L153.628 35.519V45.925C153.628 46.2403 153.527 46.4983 153.327 46.699C153.126 46.8997 152.868 47 152.553 47H147.135ZM175.606 47C175.29 47 175.032 46.8997 174.832 46.699C174.631 46.4983 174.531 46.2403 174.531 45.925V17.975C174.531 17.6597 174.631 17.4017 174.832 17.201C175.032 17.0003 175.29 16.9 175.606 16.9H181.153C181.468 16.9 181.726 17.0003 181.927 17.201C182.127 17.4017 182.228 17.6597 182.228 17.975V28.338H192.849V17.975C192.849 17.6597 192.949 17.4017 193.15 17.201C193.35 17.0003 193.608 16.9 193.924 16.9H199.471C199.786 16.9 200.044 17.0003 200.245 17.201C200.445 17.4017 200.546 17.6597 200.546 17.975V45.925C200.546 46.2403 200.445 46.4983 200.245 46.699C200.044 46.8997 199.786 47 199.471 47H193.924C193.608 47 193.35 46.8997 193.15 46.699C192.949 46.4983 192.849 46.2403 192.849 45.925V35.218H182.228V45.925C182.228 46.2403 182.127 46.4983 181.927 46.699C181.726 46.8997 181.468 47 181.153 47H175.606ZM204.851 47C204.621 47 204.406 46.914 204.206 46.742C204.034 46.5413 203.948 46.3263 203.948 46.097C203.948 45.9537 203.962 45.8247 203.991 45.71L214.096 18.104C214.182 17.7887 214.354 17.5163 214.612 17.287C214.898 17.029 215.285 16.9 215.773 16.9H222.137C222.624 16.9 222.997 17.029 223.255 17.287C223.541 17.5163 223.728 17.7887 223.814 18.104L233.876 45.71C233.933 45.8247 233.962 45.9537 233.962 46.097C233.962 46.3263 233.861 46.5413 233.661 46.742C233.489 46.914 233.274 47 233.016 47H227.727C227.297 47 226.967 46.8997 226.738 46.699C226.537 46.4697 226.408 46.269 226.351 46.097L224.674 41.711H213.193L211.559 46.097C211.501 46.269 211.372 46.4697 211.172 46.699C210.971 46.8997 210.627 47 210.14 47H204.851ZM214.956 35.519H222.954L218.912 24.167L214.956 35.519ZM238.426 47C238.11 47 237.852 46.8997 237.652 46.699C237.451 46.4983 237.351 46.2403 237.351 45.925V17.975C237.351 17.6597 237.451 17.4017 237.652 17.201C237.852 17.0003 238.11 16.9 238.426 16.9H242.984C243.471 16.9 243.815 17.0147 244.016 17.244C244.245 17.4447 244.388 17.6023 244.446 17.717L254.938 34.272V17.975C254.938 17.6597 255.038 17.4017 255.239 17.201C255.439 17.0003 255.697 16.9 256.013 16.9H261.173C261.488 16.9 261.746 17.0003 261.947 17.201C262.147 17.4017 262.248 17.6597 262.248 17.975V45.925C262.248 46.2117 262.147 46.4697 261.947 46.699C261.746 46.8997 261.488 47 261.173 47H256.572C256.113 47 255.769 46.8853 255.54 46.656C255.339 46.4267 255.21 46.269 255.153 46.183L244.661 30.273V45.925C244.661 46.2403 244.56 46.4983 244.36 46.699C244.159 46.8997 243.901 47 243.586 47H238.426ZM269.332 47C269.017 47 268.759 46.8997 268.558 46.699C268.357 46.4983 268.257 46.2403 268.257 45.925V17.975C268.257 17.6597 268.357 17.4017 268.558 17.201C268.759 17.0003 269.017 16.9 269.332 16.9H273.89C274.377 16.9 274.721 17.0147 274.922 17.244C275.151 17.4447 275.295 17.6023 275.352 17.717L285.844 34.272V17.975C285.844 17.6597 285.944 17.4017 286.145 17.201C286.346 17.0003 286.604 16.9 286.919 16.9H292.079C292.394 16.9 292.652 17.0003 292.853 17.201C293.054 17.4017 293.154 17.6597 293.154 17.975V45.925C293.154 46.2117 293.054 46.4697 292.853 46.699C292.652 46.8997 292.394 47 292.079 47H287.478C287.019 47 286.675 46.8853 286.446 46.656C286.245 46.4267 286.116 46.269 286.059 46.183L275.567 30.273V45.925C275.567 46.2403 275.467 46.4983 275.266 46.699C275.065 46.8997 274.807 47 274.492 47H269.332ZM297.443 47C297.214 47 296.999 46.914 296.798 46.742C296.626 46.5413 296.54 46.3263 296.54 46.097C296.54 45.9537 296.555 45.8247 296.583 45.71L306.688 18.104C306.774 17.7887 306.946 17.5163 307.204 17.287C307.491 17.029 307.878 16.9 308.365 16.9H314.729C315.217 16.9 315.589 17.029 315.847 17.287C316.134 17.5163 316.32 17.7887 316.406 18.104L326.468 45.71C326.526 45.8247 326.554 45.9537 326.554 46.097C326.554 46.3263 326.454 46.5413 326.253 46.742C326.081 46.914 325.866 47 325.608 47H320.319C319.889 47 319.56 46.8997 319.33 46.699C319.13 46.4697 319.001 46.269 318.943 46.097L317.266 41.711H305.785L304.151 46.097C304.094 46.269 303.965 46.4697 303.764 46.699C303.564 46.8997 303.22 47 302.732 47H297.443ZM307.548 35.519H315.546L311.504 24.167L307.548 35.519Z" fill="url(#paint0_linear_928_8)"/>
<circle cx="335.5" cy="4.5" r="4.5" fill="url(#paint1_linear_928_8)"/>
<defs>
<linearGradient id="paint0_linear_928_8" x1="4.20579" y1="35" x2="331.732" y2="35" gradientUnits="userSpaceOnUse">
<stop stop-color="#4858DD"/>
<stop offset="1" stop-color="#854EEE"/>
</linearGradient>
<linearGradient id="paint1_linear_928_8" x1="324" y1="-2.5" x2="336" y2="6.5" gradientUnits="userSpaceOnUse">
<stop stop-color="#4B5BDE"/>
<stop offset="1" stop-color="#834FEE"/>
</linearGradient>
</defs>
</svg>
