<svg xmlns="http://www.w3.org/2000/svg" width="82.896" height="36.472" viewBox="0 0 82.896 36.472">
  <g id="Group_44" data-name="Group 44" transform="translate(-92 -72)">
    <g id="RVM_Logo-F-01" transform="translate(86.175 52.769)">
      <path id="Path_39" data-name="Path 39" d="M85.6,52.906a9.887,9.887,0,0,1-.533-2.748,117.753,117.753,0,0,1-.255-16.283,30.507,30.507,0,0,0-.148-6.917A9.1,9.1,0,0,0,81.3,21.088a11.019,11.019,0,0,0-5.354-1.694c-4.745-.488-10.417.567-12.371,5.533-.061.148-.2.573-.418.521s-.2-.421-.255-.573c-.091-.242-.179-.473-.267-.694a7.342,7.342,0,0,0-2.654-3.112,9.7,9.7,0,0,0-3.851-1.457,26.64,26.64,0,0,0-4.115-.33c-2.794,0-5.89.151-7.745,2.554a7.469,7.469,0,0,0-.576.861,21.877,21.877,0,0,0-1.757,4.318l-1.573,4.912L37.23,41.752l-3.145,9.829-.33,1.079a13.056,13.056,0,0,1-.251-3.133V19.858l5.212-.03v-.542c-4.384.109-8.678-.3-13,.209a6.794,6.794,0,0,0-3.745,1.445c-1.418,1.251-1.848,3.278-1.973,5.169a7.957,7.957,0,0,0-5.351-5.03,7.217,7.217,0,0,0-7.005,1.973c-2.527,2.727-2.291,7.311-.048,10.284A7.1,7.1,0,0,0,11.1,35.947a4.56,4.56,0,0,0,4.2-.748A5.017,5.017,0,0,0,16.9,31.793a7.863,7.863,0,0,0-1.37-4.975,3.242,3.242,0,0,1-.721-2.424,1.851,1.851,0,0,1,2.409-.964,3.713,3.713,0,0,1,1.9,2.121,13.252,13.252,0,0,1,.842,5.642l.067,23.9H14.835v.551H38.729v-.548h-3.1a1.171,1.171,0,0,1-.936-.279,1.257,1.257,0,0,1-.027-1.094l3.075-9.844,3.078-9.869c.73-2.336,1.476-4.669,2.215-7l.464-1.463a8.615,8.615,0,0,1,1.148-2.6,2.956,2.956,0,0,1,2.424-1.306A2.727,2.727,0,0,1,49,22.712a4.948,4.948,0,0,1,.909,2.121,13.28,13.28,0,0,1,.273,2.588v18.4a12.687,12.687,0,0,0,.545,3.848,7.8,7.8,0,0,0,1.891,3.148,8.917,8.917,0,0,0,3.518,2.121,16.7,16.7,0,0,0,5.454.761h5.842v-.53a3.152,3.152,0,0,1-3.088-2.285,17.329,17.329,0,0,1-.894-6.19c0-3.315-.1-6.627-.067-9.941a49.181,49.181,0,0,1,.591-8.705c.448-2.324,1.109-6.551,5.009-6.021a2.082,2.082,0,0,1,1.291.694,5.859,5.859,0,0,1,1.148,3.751c.358,6.139-.221,12.3.039,18.444.112,2.672.458,5.524,2.179,7.575S78.1,55.381,80.749,55.6s5.321-.091,7.972.1l-.033-.606a2.95,2.95,0,0,1-2.8-1.618A4.628,4.628,0,0,1,85.6,52.906Z" fill="#2649db"/>
    </g>
  </g>
</svg>
